<?xml version="1.0" standalone="no"?>
<!DOCTYPE svg PUBLIC "-//W3C//DTD SVG 20010904//EN"
 "http://www.w3.org/TR/2001/REC-SVG-20010904/DTD/svg10.dtd">
<svg version="1.0" xmlns="http://www.w3.org/2000/svg"
 width="150.000000pt" height="150.000000pt" viewBox="0 0 150.000000 150.000000"
 preserveAspectRatio="xMidYMid meet">
<metadata>
Created by potrace 1.14, written by Peter Selinger 2001-2017
</metadata>
<g transform="translate(0.000000,150.000000) scale(0.100000,-0.100000)"
fill="#000000" stroke="none">
<path d="M0 1165 c0 -124 3 -225 8 -224 17 1 174 96 174 104 0 6 -31 18 -68
28 -98 26 -110 36 -44 37 l55 0 -2 115 c-2 96 0 115 12 115 8 0 15 -4 15 -10
0 -5 10 -10 23 -10 12 0 32 -8 44 -18 20 -15 23 -28 25 -112 3 -87 5 -95 25
-100 23 -5 69 -67 86 -113 9 -26 13 -28 58 -26 27 2 52 0 56 -4 3 -4 -1 -7
-10 -7 -9 0 -17 -6 -17 -14 0 -8 8 -13 18 -12 14 1 17 -8 18 -46 1 -39 -3 -48
-16 -48 -10 0 -23 -7 -30 -15 -7 -8 -19 -15 -26 -15 -16 0 -15 -10 16 -180 14
-83 19 -95 36 -93 10 1 32 3 49 5 26 3 33 -2 50 -35 13 -25 25 -36 36 -34 9 3
24 0 33 -5 19 -10 19 -8 7 25 -5 13 -6 30 -1 37 13 21 40 3 46 -30 4 -16 12
-30 18 -29 6 0 37 32 69 70 57 67 58 71 42 89 -18 19 -15 50 5 50 12 0 13 31
1 62 -5 13 -12 32 -16 43 -9 25 -18 103 -15 130 4 43 1 62 -19 119 -27 75 -26
139 2 196 35 72 119 114 252 126 105 10 226 -52 260 -134 17 -39 21 -97 6 -73
-5 8 -7 19 -5 26 3 6 -2 17 -10 24 -13 11 -14 9 -6 -18 9 -31 -6 -81 -45 -159
-13 -25 -14 -37 -6 -45 21 -21 13 -38 -15 -31 -17 4 -29 2 -35 -7 -13 -22 -11
-46 6 -53 12 -4 14 0 9 20 -11 44 33 24 52 -24 1 -1 15 5 33 15 39 22 51 9 44
-48 -3 -22 3 -73 15 -121 21 -84 25 -109 23 -141 -2 -30 -18 -10 -26 30 -4 21
-18 61 -31 89 -13 28 -24 58 -24 67 0 23 -16 29 -30 12 -9 -11 -7 -25 13 -67
88 -189 122 -290 110 -332 -17 -60 -83 -37 -83 28 0 39 -54 224 -70 240 -8 8
-9 -12 -5 -74 10 -132 24 -192 46 -197 10 -3 19 -14 19 -24 0 -20 -24 -28
-138 -49 -37 -6 -71 -19 -82 -30 -26 -26 -62 -25 -85 0 -10 11 -31 20 -47 20
-23 0 -28 4 -28 25 0 32 30 51 104 64 33 6 61 13 64 16 2 2 -1 24 -7 49 -6 25
-11 57 -11 71 0 51 -27 38 -124 -58 -53 -52 -96 -99 -96 -105 0 -5 -7 -15 -15
-22 -13 -11 -22 -10 -51 3 -46 22 -61 21 -74 -4 -11 -19 -9 -20 25 -18 23 2
39 -1 44 -10 5 -8 25 -14 45 -15 36 -1 52 -20 19 -22 -10 -1 -44 -4 -76 -8
-47 -6 -58 -4 -63 8 -3 9 -13 16 -22 16 -13 0 -12 -3 4 -15 19 -14 19 -15 -4
-21 -15 -4 -19 -10 -14 -18 11 -14 3 -86 -10 -86 -39 0 -185 124 -180 153 3
15 -6 17 -80 16 -67 -1 -77 -3 -52 -10 35 -10 52 -37 32 -51 -7 -5 -85 -6
-175 -3 l-163 7 0 -66 0 -66 750 0 750 0 0 640 0 640 -750 0 -750 0 0 -225z
m460 50 c-13 -14 -27 -25 -32 -25 -4 0 -8 11 -8 25 0 21 5 25 32 25 l31 0 -23
-25z m238 -30 c3 -18 3 -18 -10 -4 -7 9 -20 19 -28 23 -8 3 -4 4 10 3 16 -1
26 -9 28 -22z m-103 -15 c0 -1 15 -3 33 -5 39 -3 46 -9 39 -29 -5 -13 -20 -15
-79 -12 -40 2 -78 0 -84 -5 -25 -20 -66 24 -49 51 5 8 140 8 140 0z m-76 -207
c0 -17 -3 -22 -6 -13 -4 8 -13 20 -22 27 -14 11 -13 12 7 13 18 0 22 -5 21
-27z m945 -205 c18 -29 21 -62 11 -110 -6 -31 -12 -38 -31 -38 -22 0 -24 4
-24 48 -1 26 -7 64 -14 85 l-14 37 29 0 c19 0 34 -8 43 -22z m-1011 -12 c16
-13 15 -14 -13 -18 -28 -4 -40 9 -23 25 9 10 15 8 36 -7z m934 -258 c-3 -8 -6
-5 -6 6 -1 11 2 17 5 13 3 -3 4 -12 1 -19z m0 -192 c-11 -27 -76 -46 -186 -52
-77 -5 -110 -4 -115 5 -11 16 34 30 133 40 48 5 103 16 122 24 36 15 55 8 46
-17z m-487 -61 c0 -8 -17 -19 -42 -25 -24 -6 -48 -13 -54 -15 -6 -2 -17 1 -25
6 -20 12 -2 26 46 38 59 13 75 13 75 -4z"/>
<path d="M1177 1093 c-4 -3 -7 -11 -7 -17 0 -6 5 -5 12 2 6 6 9 14 7 17 -3 3
-9 2 -12 -2z"/>
<path d="M1102 1078 c-16 -16 -15 -28 2 -28 7 0 16 9 19 20 6 23 -3 26 -21 8z"/>
<path d="M1190 1050 c0 -5 5 -10 10 -10 6 0 10 5 10 10 0 6 -4 10 -10 10 -5 0
-10 -4 -10 -10z"/>
<path d="M1148 999 c-17 -40 -45 -56 -33 -19 7 23 -15 36 -42 25 -17 -8 -17
-8 0 -12 12 -3 16 -10 13 -20 -3 -8 -6 -18 -6 -23 0 -5 -13 -2 -29 6 -17 8
-49 14 -73 13 -24 -1 -49 0 -57 2 -7 2 -16 -2 -18 -8 -3 -9 9 -13 42 -13 26 0
64 -9 87 -20 56 -27 75 -25 92 9 9 16 24 31 36 34 13 3 20 13 20 30 0 41 -14
39 -32 -4z"/>
<path d="M825 960 c3 -5 11 -10 16 -10 6 0 7 5 4 10 -3 6 -11 10 -16 10 -6 0
-7 -4 -4 -10z"/>
<path d="M0 582 l0 -302 58 4 c31 2 93 5 137 6 l80 2 -50 12 c-42 9 -50 15
-51 34 -1 13 -6 28 -13 35 -6 6 -11 21 -11 34 0 12 -6 40 -14 60 -8 21 -17 47
-22 58 -4 11 -8 31 -9 45 -1 14 -12 53 -23 87 -12 34 -22 71 -22 81 0 10 -7
27 -15 38 -8 10 -15 30 -15 44 0 14 -7 34 -15 44 -13 18 -15 -14 -15 -282z"/>
<path d="M823 869 c-27 -10 -28 -18 -9 -44 18 -24 46 -13 46 19 0 31 -8 36
-37 25z"/>
<path d="M928 873 c-16 -2 -29 -11 -29 -19 -1 -8 -2 -20 -3 -26 -1 -7 -5 -16
-11 -20 -18 -13 6 -22 25 -10 11 7 27 12 35 12 10 0 15 10 15 35 0 19 -1 34
-2 34 -2 -1 -15 -4 -30 -6z"/>
<path d="M1090 870 c0 -5 7 -10 16 -10 8 0 12 5 9 10 -3 6 -10 10 -16 10 -5 0
-9 -4 -9 -10z"/>
<path d="M1092 623 c-19 -28 -19 -28 4 -53 l24 -25 0 53 c0 28 -2 52 -4 52 -3
0 -13 -12 -24 -27z"/>
<path d="M807 489 c-56 -74 -65 -90 -51 -96 12 -4 40 18 102 81 47 47 83 88
81 90 -2 2 -17 6 -34 9 -28 5 -34 0 -98 -84z"/>
<path d="M1104 512 c-9 -5 -7 -26 6 -75 28 -108 43 -109 28 -2 -10 74 -16 88
-34 77z"/>
<path d="M440 446 l0 -29 23 21 c13 12 34 22 47 22 13 0 20 3 16 7 -4 4 -25 8
-47 8 -37 0 -39 -2 -39 -29z"/>
<path d="M492 390 c-7 -11 -9 -20 -4 -20 10 0 32 22 32 32 0 15 -15 8 -28 -12z"/>
<path d="M556 372 c-2 -4 2 -16 10 -27 13 -18 14 -18 14 8 0 25 -13 36 -24 19z"/>
<path d="M440 325 c0 -9 9 -15 21 -15 18 0 19 2 9 15 -7 8 -16 15 -21 15 -5 0
-9 -7 -9 -15z"/>
<path d="M555 286 c16 -11 17 -17 7 -29 -11 -13 -9 -16 9 -22 27 -9 46 15 24
31 -8 6 -15 16 -15 23 0 6 -10 11 -22 11 -21 0 -21 0 -3 -14z"/>
<path d="M477 283 c-15 -14 -6 -24 20 -21 34 4 43 28 11 28 -14 0 -28 -3 -31
-7z"/>
<path d="M677 269 c7 -7 15 -10 18 -7 3 3 -2 9 -12 12 -14 6 -15 5 -6 -5z"/>
</g>
</svg>
